<svg width="274" height="105" viewBox="0 0 274 105" fill="none" xmlns="http://www.w3.org/2000/svg">
<path d="M1.43224 49.4348V20.8903H12.7663C14.8488 20.8903 16.5857 21.2015 17.9772 21.8241C19.3686 22.4466 20.4144 23.3108 21.1148 24.4165C21.8151 25.5129 22.1652 26.7766 22.1652 28.2076C22.1652 29.3226 21.9441 30.3029 21.5018 31.1484C21.0595 31.9847 20.4513 32.6723 19.6773 33.2112C18.9125 33.7409 18.0371 34.1172 17.0511 34.3402V34.6189C18.1292 34.6654 19.1382 34.972 20.0781 35.5388C21.0272 36.1056 21.7966 36.9001 22.3864 37.9222C22.9761 38.935 23.271 40.1429 23.271 41.546C23.271 43.0606 22.8978 44.4125 22.1514 45.6019C21.4142 46.7819 20.3223 47.7158 18.8756 48.4034C17.4289 49.091 15.6459 49.4348 13.5265 49.4348H1.43224ZM7.41716 44.5008H12.2963C13.9642 44.5008 15.1805 44.1802 15.9453 43.5391C16.7101 42.8887 17.0926 42.0245 17.0926 40.9467C17.0926 40.1569 16.9037 39.46 16.5259 38.856C16.1481 38.252 15.609 37.7782 14.9087 37.4344C14.2176 37.0906 13.3929 36.9187 12.4345 36.9187H7.41716V44.5008ZM7.41716 32.8349H11.854C12.6741 32.8349 13.4021 32.6909 14.0379 32.4028C14.6829 32.1055 15.1897 31.6874 15.5583 31.1484C15.9361 30.6095 16.125 29.9637 16.125 29.2111C16.125 28.1797 15.761 27.3481 15.0331 26.7162C14.3143 26.0844 13.2915 25.7685 11.9646 25.7685H7.41716V32.8349Z" fill="black"/>
<path d="M53.1783 35.1625C53.1783 38.2753 52.5932 40.9234 51.4229 43.107C50.2619 45.2906 48.677 46.9585 46.6682 48.1107C44.6686 49.2536 42.4202 49.825 39.923 49.825C37.4074 49.825 35.1498 49.2489 33.1503 48.0967C31.1507 46.9446 29.5704 45.2767 28.4093 43.0931C27.2483 40.9095 26.6677 38.266 26.6677 35.1625C26.6677 32.0497 27.2483 29.4016 28.4093 27.218C29.5704 25.0344 31.1507 23.3712 33.1503 22.2283C35.1498 21.0761 37.4074 20.5 39.923 20.5C42.4202 20.5 44.6686 21.0761 46.6682 22.2283C48.677 23.3712 50.2619 25.0344 51.4229 27.218C52.5932 29.4016 53.1783 32.0497 53.1783 35.1625ZM47.1105 35.1625C47.1105 33.1462 46.811 31.4458 46.212 30.0613C45.6223 28.6768 44.7884 27.6268 43.7103 26.9114C42.6321 26.1959 41.3697 25.8382 39.923 25.8382C38.4763 25.8382 37.2139 26.1959 36.1358 26.9114C35.0577 27.6268 34.2192 28.6768 33.6202 30.0613C33.0305 31.4458 32.7356 33.1462 32.7356 35.1625C32.7356 37.1788 33.0305 38.8792 33.6202 40.2637C34.2192 41.6482 35.0577 42.6982 36.1358 43.4137C37.2139 44.1291 38.4763 44.4869 39.923 44.4869C41.3697 44.4869 42.6321 44.1291 43.7103 43.4137C44.7884 42.6982 45.6223 41.6482 46.212 40.2637C46.811 38.8792 47.1105 37.1788 47.1105 35.1625Z" fill="black"/>
<path d="M57.6117 49.4348V20.8903H68.7799C70.9177 20.8903 72.7422 21.2759 74.2534 22.0471C75.7738 22.809 76.9303 23.8915 77.7227 25.2946C78.5244 26.6884 78.9252 28.3284 78.9252 30.2146C78.9252 32.1101 78.5198 33.7409 77.7089 35.1068C76.898 36.4634 75.7231 37.5041 74.1843 38.2288C72.6547 38.9536 70.8025 39.316 68.6278 39.316H61.1502V34.4656H67.6603C68.8029 34.4656 69.752 34.3077 70.5076 33.9917C71.2632 33.6758 71.8253 33.2019 72.1939 32.5701C72.5717 31.9382 72.7606 31.1531 72.7606 30.2146C72.7606 29.2668 72.5717 28.4677 72.1939 27.8173C71.8253 27.1669 71.2586 26.6744 70.4938 26.3399C69.7382 25.9961 68.7845 25.8242 67.6327 25.8242H63.5966V49.4348H57.6117ZM72.8988 36.4448L79.9342 49.4348H73.3273L66.444 36.4448H72.8988Z" fill="black"/>
<path d="M89.1397 20.8903V49.4348H83.1548V20.8903H89.1397Z" fill="black"/>
<path d="M117.741 20.8903V49.4348H112.571L100.256 31.469H100.049V49.4348H94.0638V20.8903H99.3161L111.535 38.8421H111.784V20.8903H117.741Z" fill="black"/>
<path d="M141.456 30.117C141.262 29.4387 140.991 28.8394 140.64 28.3191C140.29 27.7894 139.862 27.3434 139.355 26.9811C138.857 26.6094 138.286 26.326 137.641 26.1309C137.005 25.9357 136.3 25.8382 135.526 25.8382C134.08 25.8382 132.808 26.2005 131.711 26.9253C130.624 27.6501 129.776 28.7047 129.168 30.0892C128.56 31.4644 128.256 33.1462 128.256 35.1346C128.256 37.1231 128.555 38.8142 129.154 40.208C129.753 41.6018 130.601 42.6657 131.698 43.3997C132.794 44.1245 134.089 44.4869 135.582 44.4869C136.936 44.4869 138.093 44.2453 139.051 43.7621C140.018 43.2696 140.756 42.5774 141.262 41.6854C141.778 40.7934 142.036 39.7387 142.036 38.5215L143.253 38.7027H135.955V34.159H147.8V37.7549C147.8 40.2637 147.275 42.4194 146.225 44.222C145.174 46.0154 143.727 47.3999 141.884 48.3755C140.041 49.3418 137.931 49.825 135.554 49.825C132.9 49.825 130.569 49.235 128.56 48.0549C126.551 46.8656 124.985 45.1791 123.861 42.9955C122.746 40.8027 122.188 38.2009 122.188 35.1904C122.188 32.8767 122.52 30.8139 123.183 29.002C123.856 27.1808 124.796 25.6384 126.003 24.3747C127.21 23.111 128.615 22.1493 130.219 21.4896C131.822 20.8299 133.559 20.5 135.43 20.5C137.033 20.5 138.526 20.7369 139.908 21.2108C141.29 21.6754 142.516 22.3351 143.585 23.19C144.663 24.0448 145.543 25.0623 146.225 26.2424C146.906 27.4131 147.344 28.7047 147.538 30.117H141.456Z" fill="black"/>
<path d="M0 84.1548V58.9039H16.58V63.3055H5.29435V69.3223H15.4796V73.724H5.29435V84.1548H0Z" fill="black"/>
<path d="M25.4355 58.9039V84.1548H20.1412V58.9039H25.4355Z" fill="black"/>
<path d="M50.7365 58.9039V84.1548H46.1636L35.2692 68.262H35.0858V84.1548H29.7914V58.9039H34.4378L45.2466 74.7843H45.4666V58.9039H50.7365Z" fill="black"/>
<path d="M59.427 84.1548H53.7536L62.3982 58.9039H69.2209L77.8533 84.1548H72.1799L65.9074 64.6741H65.7117L59.427 84.1548ZM59.0724 74.2295H72.4734V78.3969H59.0724V74.2295Z" fill="black"/>
<path d="M101.812 58.9039V84.1548H97.2394L86.3451 68.262H86.1616V84.1548H80.8673V58.9039H85.5136L96.3224 74.7843H96.5425V58.9039H101.812Z" fill="black"/>
<path d="M128.281 67.7441H122.926C122.828 67.0455 122.628 66.4249 122.326 65.8824C122.025 65.3317 121.638 64.8631 121.165 64.4768C120.692 64.0905 120.146 63.7946 119.526 63.5891C118.915 63.3836 118.251 63.2808 117.533 63.2808C116.237 63.2808 115.108 63.6055 114.147 64.2549C113.185 64.896 112.439 65.8331 111.909 67.066C111.379 68.2908 111.114 69.7785 111.114 71.5293C111.114 73.3294 111.379 74.8419 111.909 76.0666C112.447 77.2913 113.197 78.216 114.159 78.8407C115.121 79.4654 116.233 79.7778 117.497 79.7778C118.206 79.7778 118.862 79.6833 119.465 79.4942C120.077 79.3051 120.619 79.0298 121.092 78.6681C121.564 78.2982 121.956 77.8503 122.265 77.3242C122.583 76.7981 122.803 76.1981 122.926 75.5241L128.281 75.5487C128.143 76.7077 127.796 77.8256 127.242 78.9024C126.696 79.9709 125.958 80.9285 125.029 81.7752C124.108 82.6136 123.007 83.2794 121.727 83.7726C120.456 84.2575 119.017 84.5 117.411 84.5C115.178 84.5 113.181 83.9904 111.42 82.9711C109.667 81.9519 108.282 80.4765 107.263 78.5448C106.252 76.6132 105.746 74.2747 105.746 71.5293C105.746 68.7757 106.26 66.4331 107.287 64.5015C108.314 62.5698 109.708 61.0985 111.469 60.0875C113.229 59.0682 115.21 58.5586 117.411 58.5586C118.862 58.5586 120.207 58.7641 121.446 59.1751C122.693 59.5861 123.798 60.1861 124.76 60.9752C125.722 61.7561 126.504 62.7137 127.107 63.848C127.719 64.9823 128.11 66.281 128.281 67.7441Z" fill="black"/>
<path d="M132.078 84.1548V58.9039H148.951V63.3055H137.372V69.3223H148.083V73.724H137.372V79.7531H149V84.1548H132.078Z" fill="black"/>
<path d="M240.121 0.955868C243.118 0.809172 245.979 0.685569 248.837 0.514746C250.755 0.400126 251.388 0.931101 251.44 2.90438C251.481 4.45397 251.504 6.00609 251.461 7.55504C251.436 8.44555 251.742 8.91029 252.626 9.17556C254.693 9.79616 256.467 10.9218 257.852 12.6038C258.168 12.9872 258.616 13.3251 258.496 14.0564C256.885 13.9306 255.271 13.8283 253.662 13.6727C251.736 13.4864 249.815 13.6583 247.891 13.6655C231.447 13.727 215.003 13.7598 198.559 13.7898C194.847 13.7965 191.147 13.5246 187.45 13.2139C187.135 13.1874 186.78 13.2325 186.543 12.8681C186.552 12.3006 187.051 12.3135 187.422 12.2043C189.777 11.5102 192.198 11.2312 194.641 11.1082C200.642 10.8059 206.645 10.5416 212.644 10.2045C223.05 9.61976 233.46 9.12956 243.879 8.82753C244.488 8.80987 245.098 8.77461 245.706 8.72318C247.402 8.57961 246.785 7.27933 246.841 6.35903C246.907 5.2924 246.112 5.50182 245.464 5.5336C235.101 6.04257 224.733 6.47144 214.375 7.08467C205.942 7.58399 197.492 7.86792 189.083 8.73276C185.345 9.11717 181.619 9.62014 178.087 11.0125C177.219 11.3545 176.109 11.6713 176.038 12.722C175.96 13.8617 177.165 14.1069 177.978 14.4708C181.163 15.8954 184.59 16.166 188.008 16.4538C194.715 17.0186 201.435 16.7509 208.15 16.7633C223.607 16.7919 239.065 16.7098 254.522 16.7863C259.828 16.8126 263.913 19.1876 266.334 24.0407C267.181 25.7368 267.571 27.5788 267.577 29.4868C267.585 32.3058 267.623 35.1254 267.576 37.9435C267.559 38.9848 267.922 39.3889 268.963 39.33C273.913 39.0502 273.2 40.396 273.205 43.675C273.215 49.8768 273.215 56.0787 273.212 62.2805C273.211 64.4961 272.877 64.8281 270.704 64.8479C267.655 64.8758 267.785 64.8793 267.705 67.8829C267.57 72.9532 267.978 78.0239 267.59 83.0925C267.066 89.922 261.781 94.9231 254.921 94.9925C252.243 95.0196 249.565 94.9896 246.887 95.0005C231.524 95.0631 216.162 95.1837 200.8 95.1688C194.797 95.163 188.779 95.0323 182.851 93.8675C179.473 93.2038 176.355 91.982 173.965 89.3587C172.193 87.4133 171.195 85.1965 171.231 82.4821C171.303 77.174 171.261 71.8641 171.241 66.5551C171.177 49.0788 171.132 31.6023 171 14.1265C170.979 11.2566 172.172 9.26856 174.519 7.85571C178.144 5.67324 182.22 4.94258 186.316 4.34719C193.993 3.2315 201.737 2.9878 209.471 2.59688C219.644 2.08267 229.814 1.50771 240.121 0.955868ZM258.02 22.1611C256.908 21.6928 255.738 21.6857 254.558 21.6866C236.797 21.7005 219.036 21.6929 201.275 21.7224C195.73 21.7316 190.188 21.6693 184.673 21.0553C183.357 20.9087 182.977 21.2159 182.982 22.5657C183.078 44.1777 183.125 65.79 183.183 87.4022C183.184 87.6841 183.2 87.9663 183.191 88.2478C183.166 89.0579 183.545 89.4142 184.361 89.4937C186.65 89.717 188.932 90.0343 191.235 90.0376C212.661 90.0678 234.086 90.0849 255.512 90.1185C257.06 90.1209 258.496 89.8193 259.776 88.9209C262.288 87.1586 263.212 84.5815 263.115 81.6907C262.948 76.7108 262.998 71.732 262.991 66.7534C262.988 65.4018 262.553 64.9539 261.203 64.9789C257.023 65.0561 252.84 65.0288 248.658 65.0306C247.389 65.0311 246.121 64.9518 244.889 64.6189C238.23 62.8204 234.612 57.0648 235.564 49.8009C236.329 43.9625 241.754 39.4049 248.085 39.34C252.501 39.2947 256.919 39.2893 261.335 39.3349C262.521 39.3472 263.029 39.0348 262.986 37.751C262.892 34.9346 262.983 32.1122 262.902 29.2951C262.807 26.0039 261.361 23.5456 258.02 22.1611ZM268.595 45.2433C268.71 44.0992 268.032 43.9686 267.105 43.9729C261.004 44.0008 254.903 43.9885 248.801 44.0067C248.054 44.0089 247.302 44.081 246.559 44.1767C242.421 44.7099 239.482 48.3825 239.77 52.6396C240.086 57.308 243.169 60.4158 247.559 60.4292C254.035 60.4489 260.512 60.3974 266.988 60.4615C268.34 60.4748 268.663 59.9815 268.645 58.7404C268.583 54.3295 268.606 49.9174 268.595 45.2433ZM180.292 56.993C180.289 48.3512 180.286 39.7094 180.282 31.0676C180.28 27.9678 180.276 24.8681 180.269 21.7683C180.268 21.1003 180.274 20.3984 179.51 20.1023C178.304 19.6346 177.081 19.2112 175.866 18.7693C175.557 19.4159 175.671 19.9871 175.671 20.5396C175.67 40.3124 175.676 60.0852 175.682 79.8579C175.683 80.7503 175.656 81.6441 175.698 82.5347C175.813 84.9809 177.874 87.5024 180.292 87.9532C180.292 77.6996 180.292 67.4873 180.292 56.993Z" fill="black"/>
<path d="M227.631 67.8979C230.56 68.9932 233.033 70.5438 234.843 73.0181C235.297 73.6374 235.769 74.322 235.208 75.0598C234.658 75.7816 233.925 75.3784 233.273 75.1343C229.2 73.6083 225.027 72.6506 220.643 72.7144C216.788 72.7705 213.12 73.6274 209.563 75.0548C209.129 75.2289 208.692 75.4346 208.237 75.5108C207.194 75.6857 206.707 75.1024 207.057 74.1016C207.372 73.2003 207.959 72.4549 208.63 71.7926C213.753 66.7349 219.864 65.8264 226.591 67.5512C226.909 67.6326 227.216 67.7542 227.631 67.8979Z" fill="black"/>
<path d="M198.109 48.678C197.565 47.7706 196.831 47.0483 196.929 45.9271C198.189 45.6119 199.383 46.0186 200.585 46.0362C204.899 46.0994 209.214 46.2849 213.523 45.8749C214.014 45.8281 214.643 45.6289 214.954 46.1496C215.295 46.7225 214.798 47.2234 214.514 47.6778C210.723 53.734 202.782 54.2546 198.109 48.678Z" fill="black"/>
<path d="M228.299 48.3599C227.854 47.5482 227.238 46.9025 227.423 45.8632C229.662 45.8632 231.894 45.846 234.126 45.8756C234.663 45.8827 234.836 46.2642 234.666 46.7705C234.087 48.5038 234.016 50.3432 233.572 52.2881C231.304 51.6119 229.682 50.2393 228.299 48.3599Z" fill="black"/>
<path d="M245.273 49.2599C247.15 48.0149 248.82 48.0298 250.25 49.2336C251.559 50.3364 252.015 52.1344 251.373 53.6645C250.696 55.28 249.043 56.2602 247.327 56.0646C245.573 55.8649 244.222 54.6269 243.898 52.8472C243.641 51.4388 244.185 50.2904 245.273 49.2599Z" fill="black"/>
<ellipse cx="222.099" cy="101.963" rx="43.1369" ry="2.53747" fill="#767676"/>
</svg>
